<?xml version="1.0" encoding="iso-8859-1"?>
<!-- Generator: Adobe Illustrator 19.0.0, SVG Export Plug-In . SVG Version: 6.00 Build 0)  -->
<svg xmlns="http://www.w3.org/2000/svg" xmlns:xlink="http://www.w3.org/1999/xlink" version="1.1" id="Capa_1" x="0px" y="0px" viewBox="0 0 504.609 504.609" style="enable-background:new 0 0 504.609 504.609;" xml:space="preserve" width="512" height="512">
<g>
	<rect x="7.5" y="397.22" style="fill:#E95B2D;" width="228.373" height="81.368"/>
	<rect x="268.736" y="397.22" style="fill:#E95B2D;" width="228.373" height="81.368"/>
	<rect x="121.688" y="188.13" style="fill:#FABA45;" width="261.234" height="102.495"/>
	<polygon style="fill:#E95B2D;" points="121.688,290.625 121.688,188.13 203.012,188.13 203.012,100.378 73.225,100.378    40.361,397.22 203.012,397.22 203.012,290.625  "/>
	<polygon style="fill:#E95B2D;" points="431.385,100.378 301.598,100.378 301.598,188.13 382.922,188.13 382.922,290.625    301.598,290.625 301.598,397.22 464.248,397.22  "/>
	<path style="fill:#FABA45;" d="M366.492,26.021c-19.961,0-36.141,16.182-36.141,36.142v38.215h72.279V62.163   C402.631,42.203,386.453,26.021,366.492,26.021z"/>
	<path style="fill:#FABA45;" d="M138.119,26.021c-19.963,0-36.141,16.182-36.141,36.142v38.215h72.279V62.163   C174.258,42.203,158.078,26.021,138.119,26.021z"/>
	<circle style="fill:#E95B2D;" cx="178.779" cy="239.378" r="20.332"/>
	<path style="fill:#E95B2D;" d="M272.635,239.378c0,11.229-9.1,20.332-20.332,20.332c-11.227,0-20.332-9.103-20.332-20.332   c0-11.23,9.105-20.333,20.332-20.333C263.535,219.045,272.635,228.148,272.635,239.378z"/>
	<circle style="fill:#E95B2D;" cx="325.828" cy="239.378" r="20.332"/>
	<path style="fill:#0F2639;" d="M470.963,389.72L438.101,92.878h-27.97V62.163c0-24.064-19.576-43.642-43.639-43.642   c-24.063,0-43.641,19.578-43.641,43.642v30.715h-28.754v87.752h-83.586V92.878h-28.754V62.163   c0-24.064-19.576-43.642-43.639-43.642c-24.063,0-43.641,19.578-43.641,43.642v30.715h-27.97L33.646,389.72H0v96.368h243.373   V389.72h-32.861v-91.595h83.586v91.595h-32.861v96.368h243.373V389.72H470.963z M366.492,33.521   c13.196,0,24.331,8.976,27.636,21.142h-55.273C342.159,42.497,353.294,33.521,366.492,33.521z M337.852,69.663h57.279v23.215   h-57.279V69.663z M138.119,33.521c13.196,0,24.331,8.976,27.636,21.142h-55.273C113.786,42.497,124.921,33.521,138.119,33.521z    M109.479,69.663h57.279v23.215h-57.279V69.663z M228.373,404.72v66.368H15V404.72h16.985h178.526H228.373z M195.512,324h-73.824   v15h73.824v17.859H76.953v15h118.559v17.86H48.737L79.94,107.878h14.538h87.279h13.754v72.752h-81.324v117.495h81.324V324z    M210.512,283.125h-81.324V195.63h81.324h83.586h81.324v87.495h-81.324H210.512z M309.098,371.859h118.559v-15H309.098V339h73.824   v-15h-73.824v-25.875h81.324V180.63h-81.324v-72.752h13.754h87.279h14.538l31.203,281.842H309.098V371.859z M489.609,471.088   H276.236V404.72h17.861h178.526h16.985V471.088z"/>
	<path style="fill:#0F2639;" d="M178.777,211.545c-15.346,0-27.83,12.486-27.83,27.833c0,15.347,12.484,27.832,27.83,27.832   c15.348,0,27.834-12.485,27.834-27.832C206.611,224.031,194.125,211.545,178.777,211.545z M178.777,252.21   c-7.074,0-12.83-5.756-12.83-12.832c0-7.076,5.756-12.833,12.83-12.833c7.077,0,12.834,5.757,12.834,12.833   C191.611,246.454,185.855,252.21,178.777,252.21z"/>
	<path style="fill:#0F2639;" d="M252.303,211.545c-15.347,0-27.832,12.486-27.832,27.833c0,15.347,12.485,27.832,27.832,27.832   c15.347,0,27.832-12.485,27.832-27.832C280.135,224.031,267.649,211.545,252.303,211.545z M252.303,252.21   c-7.075,0-12.832-5.756-12.832-12.832c0-7.076,5.757-12.833,12.832-12.833c7.075,0,12.832,5.757,12.832,12.833   C265.135,246.454,259.378,252.21,252.303,252.21z"/>
	<path style="fill:#0F2639;" d="M325.828,211.545c-15.347,0-27.832,12.486-27.832,27.833c0,15.347,12.485,27.832,27.832,27.832   c15.347,0,27.832-12.485,27.832-27.832C353.66,224.031,341.175,211.545,325.828,211.545z M325.828,252.21   c-7.075,0-12.832-5.756-12.832-12.832c0-7.076,5.757-12.833,12.832-12.833s12.832,5.757,12.832,12.833   C338.66,246.454,332.903,252.21,325.828,252.21z"/>
</g>















</svg>
